<svg width="48" height="48" viewBox="0 0 48 48" fill="none" xmlns="http://www.w3.org/2000/svg">
<path d="M39.306 2H4.87C4.10883 2 3.37883 2.30237 2.8406 2.8406C2.30237 3.37883 2 4.10883 2 4.87V25.914C2.00053 26.6748 2.30314 27.4043 2.84131 27.9421C3.37948 28.4799 4.10917 28.782 4.87 28.782H39.306C40.0665 28.7815 40.7957 28.4791 41.3334 27.9414C41.8711 27.4037 42.1735 26.6745 42.174 25.914V4.87C42.174 4.10917 41.8719 3.37948 41.3341 2.84131C40.7963 2.30314 40.0668 2.00053 39.306 2Z" fill="#E3E3E3"/>
<path d="M4.87 2C4.10883 2 3.37883 2.30237 2.8406 2.8406C2.30237 3.37883 2 4.10883 2 4.87V25.914C2.00053 26.6748 2.30314 27.4043 2.84131 27.9421C3.37948 28.4799 4.10917 28.782 4.87 28.782H7.426L34.208 2H4.87Z" fill="white"/>
<path d="M19.22 28.782H4.868C4.10752 28.7815 3.37834 28.4791 2.8406 27.9414C2.30286 27.4037 2.00053 26.6745 2 25.914V4.87C2 4.10883 2.30237 3.37883 2.8406 2.8406C3.37883 2.30237 4.10883 2 4.87 2H39.306C40.0668 2.00053 40.7963 2.30314 41.3341 2.84131C41.8719 3.37948 42.174 4.10917 42.174 4.87V19.218" stroke="#191919" stroke-width="2" stroke-linecap="round" stroke-linejoin="round"/>
<path d="M41.3441 2.85352L22.0841 18.2595L2.82812 2.85352" stroke="#191919" stroke-width="2" stroke-linecap="round" stroke-linejoin="round"/>
<path d="M34.5196 46.001C36.045 46.0294 37.5607 45.7536 38.9782 45.1896C40.3957 44.6255 41.6866 43.7846 42.7754 42.716C43.8642 41.6473 44.729 40.3724 45.3194 38.9656C45.9098 37.5589 46.2139 36.0486 46.2139 34.523C46.2139 32.9974 45.9098 31.4871 45.3194 30.0803C44.729 28.6736 43.8642 27.3986 42.7754 26.33C41.6866 25.2613 40.3957 24.4204 38.9782 23.8564C37.5607 23.2923 36.045 23.0165 34.5196 23.045C31.5126 23.1011 28.6476 24.3351 26.5409 26.4815C24.4342 28.6279 23.2539 31.5154 23.2539 34.523C23.2539 37.5305 24.4342 40.418 26.5409 42.5644C28.6476 44.7109 31.5126 45.9448 34.5196 46.001Z" fill="#78EB7B"/>
<path d="M34.5218 23.0449C32.1859 23.0439 29.9055 23.7561 27.9853 25.0862C26.0652 26.4164 24.5969 28.3011 23.7769 30.4882C22.9569 32.6754 22.8242 35.0608 23.3965 37.3255C23.9689 39.5901 25.2191 41.626 26.9798 43.1609L43.1598 26.9809C42.0856 25.7448 40.7585 24.7537 39.2683 24.0747C37.7781 23.3957 36.1594 23.0445 34.5218 23.0449Z" fill="#C9F7CA"/>
<path d="M34.5196 28.783V40.263M40.2596 34.521H28.7816M34.5196 46.001C36.045 46.0294 37.5607 45.7536 38.9782 45.1896C40.3957 44.6255 41.6866 43.7846 42.7754 42.716C43.8642 41.6473 44.729 40.3724 45.3194 38.9656C45.9098 37.5589 46.2139 36.0486 46.2139 34.523C46.2139 32.9974 45.9098 31.4871 45.3194 30.0803C44.729 28.6736 43.8642 27.3986 42.7754 26.33C41.6866 25.2613 40.3957 24.4204 38.9782 23.8564C37.5607 23.2923 36.045 23.0165 34.5196 23.045C31.5126 23.1011 28.6476 24.3351 26.5409 26.4815C24.4342 28.6279 23.2539 31.5154 23.2539 34.523C23.2539 37.5305 24.4342 40.418 26.5409 42.5644C28.6476 44.7109 31.5126 45.9448 34.5196 46.001Z" stroke="#191919" stroke-width="2" stroke-linecap="round" stroke-linejoin="round"/>
</svg>
