<svg width="48" height="48" viewBox="0 0 48 48" fill="none" xmlns="http://www.w3.org/2000/svg">
<path d="M23.9779 36.7664C27.364 36.7664 30.6113 35.4213 33.0056 33.0271C35.3998 30.6328 36.7449 27.3854 36.7449 23.9994C36.7449 20.6134 35.3998 17.3661 33.0056 14.9718C30.6113 12.5775 27.364 11.2324 23.9779 11.2324C20.5919 11.2324 17.3446 12.5775 14.9503 14.9718C12.556 17.3661 11.2109 20.6134 11.2109 23.9994C11.2109 27.3854 12.556 30.6328 14.9503 33.0271C17.3446 35.4213 20.5919 36.7664 23.9779 36.7664Z" fill="#C2F3FF"/>
<path d="M34.9219 13.068L38.7859 9.29004" stroke="#090432" stroke-width="2" stroke-linecap="round" stroke-linejoin="round"/>
<path d="M41.3277 10.3204C41.8138 10.3318 42.2973 10.2459 42.7497 10.0677C43.2022 9.88954 43.6144 9.62272 43.9622 9.28294C44.3101 8.94316 44.5865 8.53726 44.7752 8.08913C44.9639 7.64099 45.0611 7.15964 45.0611 6.67339C45.0611 6.18714 44.9639 5.7058 44.7752 5.25766C44.5865 4.80952 44.3101 4.40362 43.9622 4.06384C43.6144 3.72406 43.2022 3.45725 42.7497 3.27908C42.2973 3.10092 41.8138 3.01501 41.3277 3.02639C40.3602 3.02639 39.4323 3.41073 38.7482 4.09486C38.064 4.779 37.6797 5.70688 37.6797 6.67439C37.6797 7.6419 38.064 8.56978 38.7482 9.25392C39.4323 9.93805 40.3602 10.3204 41.3277 10.3204Z" fill="#FFEF5E"/>
<path d="M41.3272 10.3204C40.841 10.3318 40.3576 10.2459 39.9051 10.0677C39.4527 9.88954 39.0404 9.62272 38.6926 9.28294C38.3448 8.94316 38.0684 8.53726 37.8797 8.08913C37.691 7.64099 37.5938 7.15964 37.5938 6.67339C37.5938 6.18714 37.691 5.7058 37.8797 5.25766C38.0684 4.80952 38.3448 4.40362 38.6926 4.06384C39.0404 3.72406 39.4527 3.45725 39.9051 3.27908C40.3576 3.10092 40.841 3.01501 41.3272 3.02639V10.3204Z" fill="#FFF9BF"/>
<path d="M34.875 34.9043L38.729 38.7843" stroke="#090432" stroke-width="2" stroke-linecap="round" stroke-linejoin="round"/>
<path d="M41.3433 44.9747C42.3108 44.9747 43.2387 44.5904 43.9228 43.9062C44.607 43.2221 44.9913 42.2942 44.9913 41.3267C44.9913 40.3592 44.607 39.4313 43.9228 38.7472C43.2387 38.0631 42.3108 37.6787 41.3433 37.6787C40.3758 37.6787 39.4479 38.0631 38.7638 38.7472C38.0797 39.4313 37.6953 40.3592 37.6953 41.3267C37.6953 42.2942 38.0797 43.2221 38.7638 43.9062C39.4479 44.5904 40.3758 44.9747 41.3433 44.9747Z" fill="#FFEF5E"/>
<path d="M41.3433 44.9747C40.3758 44.9747 39.4479 44.5904 38.7638 43.9062C38.0797 43.2221 37.6953 42.2942 37.6953 41.3267C37.6953 40.3592 38.0797 39.4313 38.7638 38.7472C39.4479 38.0631 40.3758 37.6787 41.3433 37.6787V44.9747Z" fill="#FFF9BF"/>
<path d="M13.0408 13.068L9.21484 9.29004" stroke="#090432" stroke-width="2" stroke-linecap="round" stroke-linejoin="round"/>
<path d="M6.67534 10.3204C7.16146 10.3318 7.64495 10.2459 8.09738 10.0677C8.54982 9.88954 8.96207 9.62272 9.3099 9.28294C9.65774 8.94316 9.93413 8.53726 10.1228 8.08913C10.3115 7.64099 10.4088 7.15964 10.4088 6.67339C10.4088 6.18714 10.3115 5.7058 10.1228 5.25766C9.93413 4.80952 9.65774 4.40362 9.3099 4.06384C8.96207 3.72406 8.54982 3.45725 8.09738 3.27908C7.64495 3.10092 7.16146 3.01501 6.67534 3.02639C5.70783 3.02639 4.77995 3.41073 4.09582 4.09486C3.41169 4.779 3.02734 5.70688 3.02734 6.67439C3.02734 7.6419 3.41169 8.56978 4.09582 9.25392C4.77995 9.93805 5.70783 10.3204 6.67534 10.3204Z" fill="#FFEF5E"/>
<path d="M6.67534 3.02637C6.19628 3.02637 5.72191 3.12073 5.27931 3.30405C4.83672 3.48738 4.43457 3.75609 4.09582 4.09484C3.75707 4.43359 3.48836 4.83574 3.30503 5.27834C3.1217 5.72093 3.02734 6.1953 3.02734 6.67437C3.02734 7.15343 3.1217 7.6278 3.30503 8.0704C3.48836 8.51299 3.75707 8.91514 4.09582 9.25389C4.43457 9.59264 4.83672 9.86135 5.27931 10.0447C5.72191 10.228 6.19628 10.3224 6.67534 10.3224V3.02637Z" fill="#FFF9BF"/>
<path d="M13.1294 34.9043L9.27344 38.7843" stroke="#090432" stroke-width="2" stroke-linecap="round" stroke-linejoin="round"/>
<path d="M6.65581 44.9747C7.62332 44.9747 8.55121 44.5904 9.23534 43.9062C9.91947 43.2221 10.3038 42.2942 10.3038 41.3267C10.3038 40.3592 9.91947 39.4313 9.23534 38.7472C8.55121 38.0631 7.62332 37.6787 6.65581 37.6787C5.6883 37.6787 4.76042 38.0631 4.07629 38.7472C3.39215 39.4313 3.00781 40.3592 3.00781 41.3267C3.00781 42.2942 3.39215 43.2221 4.07629 43.9062C4.76042 44.5904 5.6883 44.9747 6.65581 44.9747Z" fill="#FFEF5E"/>
<path d="M6.65634 37.6807C5.70388 37.703 4.79794 38.097 4.1322 38.7785C3.46646 39.46 3.09375 40.3749 3.09375 41.3277C3.09375 42.2804 3.46646 43.1953 4.1322 43.8768C4.79794 44.5583 5.70388 44.9524 6.65634 44.9747V37.6807Z" fill="#FFF9BF"/>
<path d="M33.1016 23.0889H37.6816" stroke="#090432" stroke-width="2" stroke-linecap="round" stroke-linejoin="round"/>
<path d="M41.3277 26.7364C42.2952 26.7364 43.2231 26.3521 43.9072 25.668C44.5913 24.9838 44.9757 24.0559 44.9757 23.0884C44.9757 22.1209 44.5913 21.193 43.9072 20.5089C43.2231 19.8248 42.2952 19.4404 41.3277 19.4404C40.3602 19.4404 39.4323 19.8248 38.7482 20.5089C38.064 21.193 37.6797 22.1209 37.6797 23.0884C37.6797 24.0559 38.064 24.9838 38.7482 25.668C39.4323 26.3521 40.3602 26.7364 41.3277 26.7364Z" fill="#FFEF5E"/>
<path d="M41.3277 26.7364C40.3602 26.7364 39.4323 26.3521 38.7482 25.668C38.064 24.9838 37.6797 24.0559 37.6797 23.0884C37.6797 22.1209 38.064 21.193 38.7482 20.5089C39.4323 19.8248 40.3602 19.4404 41.3277 19.4404V26.7364Z" fill="#FFF9BF"/>
<path d="M14.8603 23.0889H10.3203" stroke="#090432" stroke-width="2" stroke-linecap="round" stroke-linejoin="round"/>
<path d="M6.67534 26.7364C7.64285 26.7364 8.57074 26.3521 9.25487 25.668C9.939 24.9838 10.3233 24.0559 10.3233 23.0884C10.3233 22.1209 9.939 21.193 9.25487 20.5089C8.57074 19.8248 7.64285 19.4404 6.67534 19.4404C5.70783 19.4404 4.77995 19.8248 4.09582 20.5089C3.41169 21.193 3.02734 22.1209 3.02734 23.0884C3.02734 24.0559 3.41169 24.9838 4.09582 25.668C4.77995 26.3521 5.70783 26.7364 6.67534 26.7364Z" fill="#FFEF5E"/>
<path d="M6.67534 19.4404C5.70783 19.4404 4.77995 19.8248 4.09582 20.5089C3.41169 21.193 3.02734 22.1209 3.02734 23.0884C3.02734 24.0559 3.41169 24.9838 4.09582 25.668C4.77995 26.3521 5.70783 26.7364 6.67534 26.7364V19.4404Z" fill="#FFF9BF"/>
<path d="M18.5458 20.3524C18.5463 19.3659 18.8134 18.3979 19.3189 17.5508C19.8244 16.7037 20.5495 16.009 21.4175 15.5402C22.2855 15.0714 23.264 14.846 24.2496 14.8878C25.2352 14.9296 26.1912 15.237 27.0164 15.7776C27.8415 16.3182 28.5052 17.0717 28.9372 17.9586C29.3692 18.8455 29.5534 19.8326 29.4704 20.8156C29.3873 21.7986 29.0401 22.7408 28.4654 23.5426C27.8907 24.3444 27.11 24.9759 26.2058 25.3704C25.555 25.6535 25.0012 26.1207 24.6124 26.7144C24.2237 27.3082 24.017 28.0027 24.0178 28.7124V29.4724M41.3278 10.3204C41.8139 10.3318 42.2974 10.2459 42.7499 10.0677C43.2023 9.88954 43.6145 9.62272 43.9624 9.28294C44.3102 8.94316 44.5866 8.53727 44.7753 8.08913C44.964 7.64099 45.0612 7.15964 45.0612 6.67339C45.0612 6.18714 44.964 5.7058 44.7753 5.25766C44.5866 4.80952 44.3102 4.40362 43.9624 4.06384C43.6145 3.72406 43.2023 3.45725 42.7499 3.27908C42.2974 3.10092 41.8139 3.01501 41.3278 3.02639C40.3603 3.02639 39.4324 3.41073 38.7483 4.09486C38.0642 4.779 37.6798 5.70688 37.6798 6.67439C37.6798 7.6419 38.0642 8.56978 38.7483 9.25392C39.4324 9.93805 40.3603 10.3204 41.3278 10.3204ZM41.3438 44.9744C42.3113 44.9744 43.2392 44.59 43.9233 43.9059C44.6075 43.2218 44.9918 42.2939 44.9918 41.3264C44.9918 40.3589 44.6075 39.431 43.9233 38.7469C43.2392 38.0627 42.3113 37.6784 41.3438 37.6784C40.3763 37.6784 39.4484 38.0627 38.7643 38.7469C38.0802 39.431 37.6958 40.3589 37.6958 41.3264C37.6958 42.2939 38.0802 43.2218 38.7643 43.9059C39.4484 44.59 40.3763 44.9744 41.3438 44.9744ZM6.67581 10.3204C7.16193 10.3318 7.64542 10.2459 8.09785 10.0677C8.55029 9.88954 8.96254 9.62272 9.31037 9.28294C9.65821 8.94316 9.9346 8.53727 10.1233 8.08913C10.312 7.64099 10.4092 7.15964 10.4092 6.67339C10.4092 6.18714 10.312 5.7058 10.1233 5.25766C9.9346 4.80952 9.65821 4.40362 9.31037 4.06384C8.96254 3.72406 8.55029 3.45725 8.09785 3.27908C7.64542 3.10092 7.16193 3.01501 6.67581 3.02639C5.7083 3.02639 4.78042 3.41073 4.09629 4.09486C3.41215 4.779 3.02781 5.70688 3.02781 6.67439C3.02781 7.6419 3.41215 8.56978 4.09629 9.25392C4.78042 9.93805 5.7083 10.3204 6.67581 10.3204ZM6.65581 44.9744C7.62332 44.9744 8.55121 44.59 9.23534 43.9059C9.91947 43.2218 10.3038 42.2939 10.3038 41.3264C10.3038 40.3589 9.91947 39.431 9.23534 38.7469C8.55121 38.0627 7.62332 37.6784 6.65581 37.6784C5.6883 37.6784 4.76042 38.0627 4.07629 38.7469C3.39215 39.431 3.00781 40.3589 3.00781 41.3264C3.00781 42.2939 3.39215 43.2218 4.07629 43.9059C4.76042 44.59 5.6883 44.9744 6.65581 44.9744ZM41.3278 26.7364C42.2953 26.7364 43.2232 26.352 43.9073 25.6679C44.5915 24.9838 44.9758 24.0559 44.9758 23.0884C44.9758 22.1209 44.5915 21.193 43.9073 20.5089C43.2232 19.8247 42.2953 19.4404 41.3278 19.4404C40.3603 19.4404 39.4324 19.8247 38.7483 20.5089C38.0642 21.193 37.6798 22.1209 37.6798 23.0884C37.6798 24.0559 38.0642 24.9838 38.7483 25.6679C39.4324 26.352 40.3603 26.7364 41.3278 26.7364ZM6.67581 26.7364C7.64332 26.7364 8.57121 26.352 9.25534 25.6679C9.93947 24.9838 10.3238 24.0559 10.3238 23.0884C10.3238 22.1209 9.93947 21.193 9.25534 20.5089C8.57121 19.8247 7.64332 19.4404 6.67581 19.4404C5.7083 19.4404 4.78042 19.8247 4.09629 20.5089C3.41215 21.193 3.02781 22.1209 3.02781 23.0884C3.02781 24.0559 3.41215 24.9838 4.09629 25.6679C4.78042 26.352 5.7083 26.7364 6.67581 26.7364Z" stroke="#090432" stroke-width="2" stroke-linecap="round" stroke-linejoin="round"/>
<path d="M23.8102 34.0505C23.8709 34.0709 23.9352 34.0783 23.9989 34.0723C24.0627 34.0783 24.127 34.0709 24.1877 34.0505C24.2484 34.0302 24.3042 33.9975 24.3515 33.9544C24.3989 33.9113 24.4367 33.8588 24.4626 33.8002C24.4884 33.7416 24.5018 33.6783 24.5018 33.6143C24.5018 33.5503 24.4884 33.487 24.4626 33.4284C24.4367 33.3698 24.3989 33.3173 24.3515 33.2742C24.3042 33.2311 24.2484 33.1984 24.1877 33.178C24.127 33.1577 24.0627 33.1503 23.9989 33.1563C23.9352 33.1503 23.8709 33.1577 23.8102 33.178C23.7495 33.1984 23.6937 33.2311 23.6463 33.2742C23.599 33.3173 23.5612 33.3698 23.5353 33.4284C23.5095 33.487 23.4961 33.5503 23.4961 33.6143C23.4961 33.6783 23.5095 33.7416 23.5353 33.8002C23.5612 33.8588 23.599 33.9113 23.6463 33.9544C23.6937 33.9975 23.7495 34.0302 23.8102 34.0505Z" stroke="#090432" stroke-width="2"/>
</svg>
