<svg width="48" height="48" viewBox="0 0 48 48" fill="none" xmlns="http://www.w3.org/2000/svg">
<path d="M8.69725 37.3905L4.78125 16.0205C4.78125 16.0205 6.78325 25.9145 14.4352 25.9145C22.0872 25.9145 23.9992 12.5225 23.9992 12.5225C23.9992 12.5225 25.9132 25.9145 33.5652 25.9145C41.2172 25.9145 43.2192 16.1705 43.2192 16.1705L39.3032 37.3905H8.69725Z" fill="#FFEF5E"/>
<path d="M24.0012 12.5225C24.0012 12.5225 22.0872 25.9145 14.4352 25.9145C6.78325 25.9145 4.78125 16.0205 4.78125 16.0205L8.69725 37.3905H23.9992L24.0012 12.5225Z" fill="#FFF9BF"/>
<path d="M23.9998 12.5221C25.0145 12.5224 25.9878 12.1195 26.7055 11.4022C27.4232 10.6849 27.8265 9.71183 27.8268 8.69712C27.827 7.6824 27.4242 6.70914 26.7069 5.99143C25.9896 5.27373 25.0165 4.87038 24.0018 4.87012C22.9871 4.87012 22.0139 5.27321 21.2964 5.99073C20.5789 6.70824 20.1758 7.6814 20.1758 8.69612C20.1758 9.71084 20.5789 10.684 21.2964 11.4015C22.0139 12.119 22.9871 12.5221 24.0018 12.5221" fill="#FF808C"/>
<path d="M21.2938 11.4C20.6068 10.6765 20.2295 9.7133 20.2425 8.71566C20.2555 7.71803 20.6577 6.76493 21.3633 6.05956C22.0689 5.3542 23.0222 4.95237 24.0198 4.93976C25.0175 4.92714 25.9806 5.30474 26.7038 5.99203L21.2938 11.4Z" fill="#FFBFC5"/>
<path d="M4.87 16.0281C5.25314 16.0382 5.63442 15.9715 5.99135 15.8318C6.34828 15.6922 6.67362 15.4825 6.94819 15.2151C7.22276 14.9477 7.44098 14.628 7.58998 14.2748C7.73899 13.9217 7.81576 13.5423 7.81576 13.1591C7.81576 12.7758 7.73899 12.3964 7.58998 12.0433C7.44098 11.6902 7.22276 11.3705 6.94819 11.1031C6.67362 10.8356 6.34828 10.6259 5.99135 10.4863C5.63442 10.3467 5.25314 10.2799 4.87 10.2901C4.10883 10.2901 3.37883 10.5924 2.8406 11.1307C2.30237 11.6689 2 12.3989 2 13.1601C2 13.9212 2.30237 14.6512 2.8406 15.1895C3.37883 15.7277 4.10883 16.0301 4.87 16.0301M43.132 16.1901C43.8932 16.1901 44.6232 15.8877 45.1614 15.3495C45.6996 14.8112 46.002 14.0812 46.002 13.3201C46.002 12.5589 45.6996 11.8289 45.1614 11.2907C44.6232 10.7524 43.8932 10.4501 43.132 10.4501C42.3708 10.4501 41.6408 10.7524 41.1026 11.2907C40.5644 11.8289 40.262 12.5589 40.262 13.3201C40.262 14.0812 40.5644 14.8112 41.1026 15.3495C41.6408 15.8877 42.3708 16.1901 43.132 16.1901Z" fill="#FF808C"/>
<path d="M4.87 16.0281C5.25314 16.0382 5.63442 15.9715 5.99135 15.8318C6.34828 15.6922 6.67362 15.4825 6.94819 15.2151C7.22276 14.9477 7.44098 14.628 7.58998 14.2748C7.73899 13.9217 7.81576 13.5423 7.81576 13.1591C7.81576 12.7758 7.73899 12.3964 7.58998 12.0433C7.44098 11.6902 7.22276 11.3705 6.94819 11.1031C6.67362 10.8356 6.34828 10.6259 5.99135 10.4863C5.63442 10.3467 5.25314 10.2799 4.87 10.2901C4.10883 10.2901 3.37883 10.5924 2.8406 11.1307C2.30237 11.6689 2 12.3989 2 13.1601C2 13.9212 2.30237 14.6512 2.8406 15.1895C3.37883 15.7277 4.10883 16.0301 4.87 16.0301M43.132 16.1901C43.8932 16.1901 44.6232 15.8877 45.1614 15.3495C45.6996 14.8112 46.002 14.0812 46.002 13.3201C46.002 12.5589 45.6996 11.8289 45.1614 11.2907C44.6232 10.7524 43.8932 10.4501 43.132 10.4501C42.3708 10.4501 41.6408 10.7524 41.1026 11.2907C40.5644 11.8289 40.262 12.5589 40.262 13.3201C40.262 14.0812 40.5644 14.8112 41.1026 15.3495C41.6408 15.8877 42.3708 16.1901 43.132 16.1901Z" stroke="#090432" stroke-width="2" stroke-linecap="round" stroke-linejoin="round"/>
<path d="M8.69925 43.1305H39.3053M8.69725 37.3905L4.78125 16.0205C4.78125 16.0205 6.78325 25.9145 14.4352 25.9145C22.0872 25.9145 23.9992 12.5225 23.9992 12.5225C23.9992 12.5225 25.9132 25.9145 33.5652 25.9145C41.2172 25.9145 43.2192 16.1705 43.2192 16.1705L39.3032 37.3905H8.69725Z" stroke="#090432" stroke-width="2" stroke-linecap="round" stroke-linejoin="round"/>
<path d="M23.9998 12.5221C25.0145 12.5224 25.9878 12.1195 26.7055 11.4022C27.4232 10.6849 27.8265 9.71184 27.8268 8.69712C27.827 7.6824 27.4242 6.70914 26.7069 5.99143C25.9896 5.27373 25.0165 4.87038 24.0018 4.87012C22.9871 4.87012 22.0139 5.27321 21.2964 5.99073C20.5789 6.70824 20.1758 7.6814 20.1758 8.69612C20.1758 9.71084 20.5789 10.684 21.2964 11.4015C22.0139 12.119 22.9871 12.5221 24.0018 12.5221" stroke="#090432" stroke-width="2" stroke-linecap="round" stroke-linejoin="round"/>
</svg>
