<svg width="48" height="48" viewBox="0 0 48 48" fill="none" xmlns="http://www.w3.org/2000/svg">
<path d="M29.74 2H4.87C3.284 2 2 3.284 2 4.87V39.304C2 40.888 3.284 42.174 4.87 42.174H29.74C31.324 42.174 32.608 40.89 32.608 39.304V4.87C32.608 3.284 31.324 2 29.74 2Z" fill="white"/>
<path d="M27.8262 5.82622H6.78022C6.527 5.82727 6.28445 5.92833 6.10539 6.10739C5.92633 6.28645 5.82527 6.529 5.82422 6.78222V33.5662C5.82422 34.0942 6.25222 34.5222 6.78022 34.5222H27.8242C28.0774 34.5212 28.32 34.4201 28.4991 34.241C28.6781 34.062 28.7792 33.8194 28.7802 33.5662V6.78022C28.7792 6.527 28.6781 6.28445 28.4991 6.10539C28.32 5.92633 28.0774 5.82527 27.8242 5.82422" fill="#66E1FF"/>
<path d="M28.7802 8.69622V6.78022C28.7792 6.52734 28.6784 6.28509 28.4998 6.10609C28.3211 5.92709 28.0791 5.8258 27.8262 5.82422H6.78022C6.527 5.82527 6.28445 5.92633 6.10539 6.10539C5.92633 6.28445 5.82527 6.527 5.82422 6.78022V31.6502L28.7802 8.69622Z" fill="#C2F3FF"/>
<path d="M32.6064 30.6958L30.2144 28.3038C29.8339 27.924 29.3181 27.7107 28.7804 27.7107C28.2427 27.7107 27.727 27.924 27.3464 28.3038C27.0354 28.7176 26.8672 29.2212 26.8672 29.7388C26.8672 30.2565 27.0354 30.7601 27.3464 31.1738L32.6064 37.3918V39.3038C32.6064 41.2178 36.4324 45.9998 36.4324 45.9998H45.9984L40.2584 38.3478V29.6278C40.2584 26.3858 36.2784 23.3138 32.6064 20.1738V30.6958Z" fill="#FFDDA1"/>
<path d="M15.39 38.348H19.216M27.826 42.184H4.87C4.10889 42.1782 3.38074 41.8726 2.84347 41.3335C2.3062 40.7943 2.00314 40.0651 2 39.304V4.87C2.00264 4.10964 2.30586 3.38117 2.84352 2.84352C3.38117 2.30586 4.10964 2.00264 4.87 2H29.74C30.5008 2.00053 31.2303 2.30314 31.7681 2.84131C32.3059 3.37948 32.608 4.10917 32.608 4.87V30.696" stroke="#090432" stroke-width="2" stroke-linecap="round" stroke-linejoin="round"/>
<path d="M30.1782 34.5202H6.77822C6.52569 34.5186 6.28395 34.4176 6.10538 34.2391C5.92681 34.0605 5.82579 33.8188 5.82422 33.5662V6.78022C5.82527 6.527 5.92633 6.28445 6.10539 6.10539C6.28444 5.92633 6.527 5.82527 6.78022 5.82422H27.8242C28.0774 5.82527 28.32 5.92633 28.4991 6.10539C28.6781 6.28445 28.7792 6.527 28.7802 6.78022V27.7042M45.9982 46.0002L40.2582 38.3482V29.6282C40.2582 26.3862 36.2782 23.3142 32.6062 20.1742" stroke="#090432" stroke-width="2" stroke-linecap="round" stroke-linejoin="round"/>
<path d="M34.5185 32.6085L30.2145 28.3045C29.8342 27.9242 29.3184 27.7105 28.7805 27.7105C28.2426 27.7105 27.7268 27.9242 27.3465 28.3045C27.0354 28.7182 26.8672 29.2218 26.8672 29.7395C26.8672 30.2571 27.0354 30.7607 27.3465 31.1745L32.6065 37.3925V39.3045C32.6065 41.2185 36.4325 46.0005 36.4325 46.0005M11.5625 24.9565H23.0425M11.5625 19.2185H23.0425M11.5625 13.4805H19.2145" stroke="#090432" stroke-width="2" stroke-linecap="round" stroke-linejoin="round"/>
</svg>
