<svg width="48" height="48" viewBox="0 0 48 48" fill="none" xmlns="http://www.w3.org/2000/svg">
<path d="M46 3.52344V45.9994" stroke="#090432" stroke-width="2" stroke-linecap="round" stroke-linejoin="round"/>
<path d="M45.4603 2.64954C45.2968 2.57035 45.1141 2.53921 44.9335 2.55975C44.753 2.58028 44.5819 2.65164 44.4403 2.76554C34.5503 10.8315 34.0263 -1.27046 24.0003 2.90354C13.9723 -1.27046 13.4483 10.8315 3.56033 2.76354C3.41853 2.64785 3.24651 2.5753 3.06469 2.55449C2.88287 2.53369 2.6989 2.5655 2.53464 2.64616C2.37037 2.72682 2.2327 2.85294 2.13799 3.00953C2.04328 3.16612 1.9955 3.3466 2.00033 3.52954C2.07633 8.90354 3.46833 22.7875 15.7623 22.7875C18.4623 22.8115 21.1423 22.2955 23.6423 21.2695C23.7556 21.2203 23.8778 21.1948 24.0013 21.1948C24.1249 21.1948 24.2471 21.2203 24.3603 21.2695C26.8603 22.2955 29.5363 22.8095 32.2383 22.7875C44.5323 22.7875 45.9243 8.90354 45.9983 3.52954C46.0017 3.34687 45.9529 3.16703 45.8576 3.01115C45.7623 2.85527 45.6245 2.72982 45.4603 2.64954ZM20.1403 13.3695C19.7923 15.3395 16.9483 16.4795 13.7983 15.9195C10.6483 15.3595 8.38033 13.2995 8.73233 11.3255C9.08433 9.35154 11.9243 8.22554 15.0723 8.78554C18.2203 9.34954 20.4903 11.3975 20.1403 13.3695ZM34.2003 15.9195C31.0503 16.4795 28.2103 15.3455 27.8603 13.3735C27.5063 11.3995 29.7723 9.35354 32.9263 8.78154C36.0803 8.20954 38.9143 9.35554 39.2663 11.3275C39.6183 13.2995 37.3503 15.3575 34.2003 15.9195Z" fill="#FF808C"/>
<path d="M23.5383 2.71938C13.9523 -0.896621 13.2883 10.7054 3.56028 2.76538C3.41861 2.64982 3.24678 2.5773 3.06515 2.55643C2.88352 2.53555 2.69971 2.5672 2.53552 2.64761C2.37133 2.72802 2.23364 2.85383 2.13877 3.01011C2.04391 3.1664 1.99584 3.34661 2.00028 3.52938C2.07428 8.90338 3.46628 22.7874 15.7603 22.7874C18.4237 22.8084 21.0654 22.3076 23.5363 21.3134L23.5383 2.71938ZM13.7983 15.9194C10.6503 15.3554 8.38028 13.3034 8.73228 11.3274C9.08428 9.35138 11.9243 8.22538 15.0723 8.78738C18.2203 9.34938 20.4903 11.3994 20.1403 13.3774C19.7903 15.3574 16.9483 16.4834 13.7983 15.9194Z" fill="#FFBFC5"/>
<path d="M44.9335 2.55975C45.1141 2.53921 45.2968 2.57035 45.4603 2.64954C45.6245 2.72982 45.7623 2.85527 45.8576 3.01115C45.9529 3.16703 46.0017 3.34687 45.9983 3.52954C45.9243 8.90354 44.5323 22.7875 32.2383 22.7875C29.5363 22.8095 26.8603 22.2955 24.3603 21.2695C24.2471 21.2203 24.1249 21.1948 24.0013 21.1948C23.8778 21.1948 23.7556 21.2203 23.6423 21.2695C21.1423 22.2955 18.4623 22.8115 15.7623 22.7875C3.46833 22.7875 2.07633 8.90354 2.00033 3.52954C1.9955 3.3466 2.04328 3.16612 2.13799 3.00953C2.2327 2.85294 2.37037 2.72682 2.53464 2.64616C2.6989 2.5655 2.88287 2.53369 3.06469 2.55449C3.24651 2.5753 3.41853 2.64785 3.56033 2.76354C13.4483 10.8315 13.9723 -1.27046 24.0003 2.90354C34.0263 -1.27046 34.5503 10.8315 44.4403 2.76554C44.5819 2.65164 44.753 2.58028 44.9335 2.55975Z" stroke="#090432" stroke-width="2" stroke-linecap="round" stroke-linejoin="round"/>
</svg>
