<svg width="48" height="48" viewBox="0 0 48 48" fill="none" xmlns="http://www.w3.org/2000/svg">
<path d="M21.13 27.8261C21.13 27.3188 20.9286 26.8323 20.5701 26.4734C20.2116 26.1145 19.7253 25.9126 19.218 25.9121H3.914C3.40638 25.9121 2.91954 26.1138 2.5606 26.4727C2.20165 26.8317 2 27.3185 2 27.8261V43.1301C1.99974 43.3815 2.04907 43.6305 2.14516 43.8629C2.24125 44.0952 2.38223 44.3063 2.56001 44.4841C2.7378 44.6619 2.9489 44.8029 3.18123 44.899C3.41357 44.995 3.66258 45.0444 3.914 45.0441H19.218C19.7253 45.0436 20.2116 44.8417 20.5701 44.4828C20.9286 44.1239 21.13 43.6374 21.13 43.1301V27.8261Z" fill="#FFEF5E"/>
<path d="M19.218 25.9141H3.914C3.40672 25.9141 2.92019 26.1155 2.5613 26.474C2.20242 26.8325 2.00053 27.3188 2 27.8261V31.6521C2 31.4009 2.04952 31.1521 2.14573 30.92C2.24195 30.6879 2.38296 30.477 2.56072 30.2994C2.73848 30.1218 2.94949 29.981 3.18169 29.8851C3.4139 29.7891 3.66274 29.7398 3.914 29.7401H19.218C19.7249 29.7406 20.2109 29.9423 20.5694 30.3007C20.9279 30.6592 21.1295 31.1452 21.13 31.6521V27.8261C21.13 27.3188 20.9286 26.8323 20.5701 26.4734C20.2116 26.1145 19.7253 25.9146 19.218 25.9141Z" fill="#FFF9BF"/>
<path d="M46.0011 27.8261C46.0011 27.3185 45.7994 26.8317 45.4405 26.4727C45.0816 26.1138 44.5947 25.9121 44.0871 25.9121H28.7831C28.2758 25.9126 27.7895 26.1145 27.431 26.4734C27.0725 26.8323 26.8711 27.3188 26.8711 27.8261V43.1301C26.8711 43.6374 27.0725 44.1239 27.431 44.4828C27.7895 44.8417 28.2758 45.0436 28.7831 45.0441H44.0871C44.3385 45.0444 44.5875 44.995 44.8199 44.899C45.0522 44.8029 45.2633 44.6619 45.4411 44.4841C45.6189 44.3063 45.7598 44.0952 45.8559 43.8629C45.952 43.6305 46.0014 43.3815 46.0011 43.1301V27.8261Z" fill="#FF808C"/>
<path d="M44.0871 25.9141H28.7831C28.2762 25.9146 27.7901 26.1162 27.4317 26.4747C27.0732 26.8332 26.8716 27.3192 26.8711 27.8261V31.6521C26.8716 31.1452 27.0732 30.6592 27.4317 30.3007C27.7901 29.9423 28.2762 29.7406 28.7831 29.7401H44.0871C44.3383 29.7398 44.5872 29.7891 44.8194 29.8851C45.0516 29.981 45.2626 30.1218 45.4404 30.2994C45.6181 30.477 45.7591 30.6879 45.8554 30.92C45.9516 31.1521 46.0011 31.4009 46.0011 31.6521V27.8261C46.0011 27.3185 45.7994 26.8317 45.4405 26.4727C45.0816 26.1138 44.5947 25.9141 44.0871 25.9141Z" fill="#FFBFC5"/>
<path d="M34.5206 4.87005C34.5206 4.36278 34.3192 3.87625 33.9607 3.51736C33.6022 3.15847 33.1159 2.95658 32.6086 2.95605H17.3046C16.797 2.95605 16.3102 3.15771 15.9512 3.51665C15.5923 3.8756 15.3906 4.36243 15.3906 4.87005V20.1741C15.3904 20.4255 15.4397 20.6745 15.5358 20.9068C15.6319 21.1392 15.7729 21.3503 15.9506 21.528C16.1284 21.7058 16.3395 21.8468 16.5719 21.9429C16.8042 22.039 17.0532 22.0883 17.3046 22.0881H32.6086C33.1163 22.0881 33.6031 21.8864 33.962 21.5275C34.321 21.1685 34.5226 20.6817 34.5226 20.1741L34.5206 4.87005Z" fill="#78EB7B"/>
<path d="M32.6086 2.95605H17.3046C16.797 2.95605 16.3102 3.15771 15.9512 3.51665C15.5923 3.8756 15.3906 4.36243 15.3906 4.87005V8.69605C15.3906 8.18843 15.5923 7.7016 15.9512 7.34265C16.3102 6.98371 16.797 6.78205 17.3046 6.78205H32.6086C33.1163 6.78205 33.6031 6.98371 33.962 7.34265C34.321 7.7016 34.5226 8.18843 34.5226 8.69605V4.87005C34.5226 4.36243 34.321 3.8756 33.962 3.51665C33.6031 3.15771 33.1163 2.95605 32.6086 2.95605Z" fill="#C9F7CA"/>
<path d="M21.13 27.8261C21.13 27.3188 20.9286 26.8322 20.5701 26.4734C20.2116 26.1145 19.7253 25.9126 19.218 25.9121H3.914C3.40638 25.9121 2.91954 26.1137 2.5606 26.4727C2.20165 26.8316 2 27.3184 2 27.8261V43.1301C1.99974 43.3815 2.04907 43.6305 2.14516 43.8628C2.24125 44.0952 2.38223 44.3063 2.56001 44.484C2.7378 44.6618 2.9489 44.8028 3.18123 44.8989C3.41357 44.995 3.66258 45.0443 3.914 45.0441H19.218C19.7253 45.0435 20.2116 44.8416 20.5701 44.4827C20.9286 44.1239 21.13 43.6373 21.13 43.1301V27.8261ZM46 27.8261C46 27.3184 45.7983 26.8316 45.4394 26.4727C45.0805 26.1137 44.5936 25.9121 44.086 25.9121H28.782C28.2747 25.9126 27.7884 26.1145 27.4299 26.4734C27.0714 26.8322 26.87 27.3188 26.87 27.8261V43.1301C26.87 43.6373 27.0714 44.1239 27.4299 44.4827C27.7884 44.8416 28.2747 45.0435 28.782 45.0441H44.086C44.3374 45.0443 44.5864 44.995 44.8188 44.8989C45.0511 44.8028 45.2622 44.6618 45.44 44.484C45.6178 44.3063 45.7587 44.0952 45.8548 43.8628C45.9509 43.6305 46.0003 43.3815 46 43.1301V27.8261ZM34.52 4.87005C34.52 4.36278 34.3186 3.87625 33.9601 3.51736C33.6016 3.15847 33.1153 2.95658 32.608 2.95605H17.304C16.7964 2.95605 16.3095 3.15771 15.9506 3.51665C15.5917 3.8756 15.39 4.36243 15.39 4.87005V20.1741C15.3897 20.4255 15.4391 20.6745 15.5352 20.9068C15.6313 21.1392 15.7722 21.3503 15.95 21.528C16.1278 21.7058 16.3389 21.8468 16.5712 21.9429C16.8036 22.039 17.0526 22.0883 17.304 22.0881H32.608C33.1156 22.0881 33.6025 21.8864 33.9614 21.5275C34.3203 21.1685 34.522 20.6817 34.522 20.1741L34.52 4.87005Z" stroke="#090432" stroke-width="2" stroke-linecap="round" stroke-linejoin="round"/>
</svg>
