<svg aria-hidden="true" style="position: absolute; width: 0; height: 0; overflow: hidden;" version="1.1"
  xmlns="http://www.w3.org/2000/svg" xmlns:xlink="http://www.w3.org/1999/xlink">
  <defs>
    <symbol id="icon-plus" viewBox="0 0 32 32">
      <path stroke-linejoin="miter" stroke-linecap="round" stroke-miterlimit="4" stroke-width="1.8526"
        d="M16 6.737v21.895"></path>
      <path stroke-linejoin="miter" stroke-linecap="round" stroke-miterlimit="4" stroke-width="1.8526"
        d="M5.053 17.684h21.895"></path>
    </symbol>

    <symbol id="icon-burger" viewBox="0 0 33 32">
      <path stroke-linejoin="round" stroke-linecap="round" stroke-miterlimit="4" stroke-width="1.7204"
        d="M5.334 16h21.333"></path>
      <path stroke-linejoin="round" stroke-linecap="round" stroke-miterlimit="4" stroke-width="1.7204"
        d="M5.334 8h21.333"></path>
      <path stroke-linejoin="round" stroke-linecap="round" stroke-miterlimit="4" stroke-width="1.7204"
        d="M5.334 24h21.333"></path>
    </symbol>
    <symbol id="icon-close" viewBox="0 0 32 32">
      <path stroke="currentColor" stroke-linejoin="miter" stroke-linecap="round" stroke-miterlimit="4"
        stroke-width="1.561" d="M26.667 26.667l-21.333-21.333M26.667 5.333l-21.333 21.333"></path>
    </symbol>
    <symbol id="icon-arrow-accord" viewBox="0 0 32 32">
      <path
        d="M10.517 9.25h13.8c0.378 0 0.695 0.133 0.951 0.4s0.384 0.578 0.383 0.933c0 0.111-0.016 0.228-0.049 0.351s-0.083 0.239-0.151 0.349l-6.9 10.867c-0.133 0.2-0.3 0.35-0.5 0.451s-0.411 0.15-0.633 0.149c-0.222-0.001-0.433-0.051-0.633-0.149s-0.367-0.249-0.5-0.451l-6.9-10.867c-0.067-0.111-0.117-0.227-0.151-0.349s-0.050-0.239-0.049-0.351c0-0.355 0.128-0.667 0.384-0.933s0.572-0.4 0.949-0.4z">
      </path>
    </symbol>

  </defs>
</svg>